<svg id="Layer_5" enable-background="new 0 0 64 64" height="512" viewBox="0 0 64 64" width="512" xmlns="http://www.w3.org/2000/svg"><g><g><g><path d="m26 50v10c0 1.1-.9 2-2 2h-20c-1.1 0-2-.9-2-2v-10z" fill="#e6e9ed"/></g><g><path d="m26 24v10c0 1.1-.9 2-2 2h-10-10c-1.1 0-2-.9-2-2v-10z" fill="#e6e9ed"/></g><g><path d="m2 50v-6c0-1.1.9-2 2-2h10 10c1.1 0 2 .9 2 2v6z" fill="#5cd6b3"/></g><g><path d="m2 24v-6c0-1.1.9-2 2-2h10 10c1.1 0 2 .9 2 2v6z" fill="#5cd6b3"/></g><g><path d="m6 54h6v4h-6z" fill="#fcd770"/></g><g><path d="m6 28h6v4h-6z" fill="#ff826e"/></g><g><circle cx="14" cy="5" fill="#ff826e" r="3"/></g><g><path d="m42.91 19.65c-2 1.19-3.64 2.94-4.67 5.03-1.41-.48-2.24-1.06-2.24-1.68v-6c0 1.15 2.81 2.15 6.91 2.65z" fill="#fcd770"/></g><g><path d="m62 17v6c0 .62-.82 1.2-2.22 1.68l-.01.01c-1.04-2.1-2.67-3.85-4.68-5.04 4.11-.5 6.91-1.5 6.91-2.65z" fill="#fcd770"/></g><g><path d="m62 5v6c0 1.66-5.82 3-13 3s-13-1.34-13-3v-6c0 1.66 5.82 3 13 3s13-1.34 13-3z" fill="#fcd770"/></g><g><path d="m62 11v6c0 1.15-2.8 2.15-6.91 2.65h-.01c-1.78-1.05-3.86-1.65-6.08-1.65s-4.3.6-6.08 1.65h-.01c-4.1-.5-6.91-1.5-6.91-2.65v-6c0 1.66 5.82 3 13 3s13-1.34 13-3z" fill="#ffeaa7"/></g><g><ellipse cx="49" cy="5" fill="#ffeaa7" rx="13" ry="3"/></g><g><path d="m51 46c1.1 0 2 .9 2 2v10c0 1.1-.45 2.1-1.17 2.83-.73.72-1.73 1.17-2.83 1.17-2.21 0-4-1.79-4-4v-10c0-1.1.9-2 2-2h1 2z" fill="#969faa"/></g><g><path d="m51 41.83v3.17c0 .55-.45 1-1 1h-2c-.55 0-1-.45-1-1v-3.17c.65.11 1.32.17 2 .17s1.35-.06 2-.17z" fill="#ccd1d9"/></g><g><path d="m51 41.83c-.65.11-1.32.17-2 .17s-1.35-.06-2-.17c-5.68-.95-10-5.88-10-11.83 0-1.91.44-3.72 1.24-5.32 1.03-2.09 2.67-3.84 4.67-5.03h.01c1.78-1.05 3.86-1.65 6.08-1.65s4.3.6 6.08 1.65h.01c2.01 1.19 3.64 2.94 4.68 5.04.79 1.6 1.23 3.4 1.23 5.31 0 5.95-4.32 10.88-10 11.83z" fill="#e6e9ed"/></g><g><circle cx="49" cy="30" fill="#69d6f4" r="8"/></g></g><g><path d="m49 1c-1.298 0-11.734.092-13.686 3h-17.456c-.447-1.721-2-3-3.858-3-2.206 0-4 1.794-4 4 0 1.859 1.28 3.411 3 3.858v6.142h-9c-1.654 0-3 1.346-3 3v16c0 1.654 1.346 3 3 3h9v4h-9c-1.654 0-3 1.346-3 3v16c0 1.654 1.346 3 3 3h20c1.654 0 3-1.346 3-3v-16c0-1.654-1.346-3-3-3h-9v-4h9c1.654 0 3-1.346 3-3v-16c0-1.654-1.346-3-3-3h-9v-6.142c1.399-.364 2.494-1.459 2.858-2.858h17.142v17c0 1.127 1.034 1.824 1.917 2.235-.585 1.477-.917 3.082-.917 4.765 0 6.134 4.276 11.277 10 12.637v2.363c0 .061.013.119.018.179-1.171.409-2.018 1.512-2.018 2.821v10c0 2.757 2.243 5 5 5s5-2.243 5-5v-10c0-1.309-.847-2.412-2.018-2.821.005-.06.018-.118.018-.179v-2.363c5.724-1.36 10-6.503 10-12.637 0-1.683-.332-3.288-.917-4.765.88-.409 1.917-1.107 1.917-2.235v-18c0-3.888-12.567-4-14-4zm-25 60h-20c-.551 0-1-.448-1-1v-9h22v9c0 .552-.449 1-1 1zm1-17v5h-22v-5c0-.552.449-1 1-1h20c.551 0 1 .448 1 1zm-1-9h-20c-.551 0-1-.448-1-1v-9h22v9c0 .552-.449 1-1 1zm1-17v5h-22v-5c0-.552.449-1 1-1h20c.551 0 1 .448 1 1zm-11-11c-1.103 0-2-.897-2-2s.897-2 2-2 2 .897 2 2-.897 2-2 2zm47 3.923c-.484.758-4.831 2.077-12 2.077s-11.516-1.319-12-2.077v-3.652c3.606 1.666 10.927 1.729 12 1.729s8.394-.063 12-1.729zm0 6.003c-.215.302-1.637 1.158-5.731 1.693-1.86-1.029-3.996-1.619-6.269-1.619s-4.408.59-6.269 1.618c-4.094-.535-5.516-1.391-5.731-1.693v-3.655c3.606 1.667 10.927 1.73 12 1.73s8.394-.063 12-1.729zm-12-13.926c6.93 0 11.228 1.233 11.945 2-.717.767-5.015 2-11.945 2s-11.228-1.233-11.945-2c.717-.767 5.015-2 11.945-2zm-12 19.927v-3.654c.859.396 1.998.729 3.405 1-1.028.909-1.909 1.975-2.608 3.165-.546-.251-.742-.443-.797-.511zm15 35.073c0 1.654-1.346 3-3 3s-3-1.346-3-3v-10c0-.552.449-1 1-1h1 2 1c.551 0 1 .448 1 1zm-2-13h-2v-2.051c.331.026.662.051 1 .051s.669-.025 1-.051zm-1-4c-6.065 0-11-4.935-11-11s4.935-11 11-11 11 4.935 11 11-4.935 11-11 11zm8.595-20.727c1.408-.271 2.546-.604 3.405-1v3.654c-.055.068-.251.26-.797.51-.7-1.189-1.581-2.255-2.608-3.164z"/><path d="m49 21c-4.962 0-9 4.037-9 9s4.038 9 9 9 9-4.037 9-9-4.038-9-9-9zm0 16c-3.86 0-7-3.141-7-7s3.14-7 7-7 7 3.141 7 7-3.14 7-7 7z"/><path d="m48 29h2v2h-2z"/><path d="m44 29h2v2h-2z"/><path d="m52 29h2v2h-2z"/><path d="m13 19h2v2h-2z"/><path d="m9 19h2v2h-2z"/><path d="m5 19h2v2h-2z"/><path d="m5 33h8v-6h-8zm2-4h4v2h-4z"/><path d="m15 27h8v2h-8z"/><path d="m15 31h8v2h-8z"/><path d="m9 45h2v2h-2z"/><path d="m13 45h2v2h-2z"/><path d="m5 45h2v2h-2z"/><path d="m5 59h8v-6h-8zm2-4h4v2h-4z"/><path d="m15 53h8v2h-8z"/><path d="m15 57h8v2h-8z"/></g></g></svg>